<svg xmlns="http://www.w3.org/2000/svg" xmlns:xlink="http://www.w3.org/1999/xlink" xmlns:lucid="lucid" width="2043" height="917"><g transform="translate(-18 366)" lucid:page-tab-id="0_0"><path d="M0-500h2500v1500H0z" fill="#fff"/><path d="M60 272a12 12 0 0 1 12-12h436a12 12 0 0 1 12 12v266a12 12 0 0 1-12 12H72a12 12 0 0 1-12-12z" fill="#fff"/><path d="M60 300h460v29H60z" fill="#fff"/><path d="M60 328h460v38H60z" fill="#fff"/><path d="M60 365h460v38H60z" fill="#fff"/><path d="M60 402h460v38H60z" fill="#fff"/><path d="M60 439h460v38H60z" fill="#fff"/><path d="M60 476h460v38H60z" fill="#fff"/><path d="M60 513h460v25a12 12 0 0 1-12 12H72a12 12 0 0 1-12-12z" fill="#fff"/><path d="M61 300h458H61zM60 272a12 12 0 0 1 12-12h436a12 12 0 0 1 12 12v266a12 12 0 0 1-12 12H72a12 12 0 0 1-12-12zM204.06 301v248zM341.33 301v248z" stroke="#3a414a" stroke-width="2" fill="none"/><use xlink:href="#a" transform="matrix(1,0,0,1,70,260) translate(149.04730902777777 28.08376736111111)"/><use xlink:href="#b" transform="matrix(1,0,0,1,65,330.5) translate(18.73697916666667 24.08376736111111)"/><use xlink:href="#c" transform="matrix(1,0,0,1,209.06042813864258,330.5) translate(0 24.08376736111111)"/><use xlink:href="#d" transform="matrix(1,0,0,1,346.3333333333333,330.5) translate(0 24.08376736111111)"/><use xlink:href="#e" transform="matrix(1,0,0,1,65,367.5) translate(2.6345486111111143 24.08376736111111)"/><use xlink:href="#f" transform="matrix(1,0,0,1,346.3333333333333,367.5) translate(0 24.08376736111111)"/><use xlink:href="#g" transform="matrix(1,0,0,1,65,404.5) translate(43.80208333333333 24.08376736111111)"/><use xlink:href="#d" transform="matrix(1,0,0,1,346.3333333333333,404.5) translate(0 24.08376736111111)"/><use xlink:href="#h" transform="matrix(1,0,0,1,65,441.5) translate(15.498046874999993 24.08376736111111)"/><use xlink:href="#i" transform="matrix(1,0,0,1,346.3333333333333,441.5) translate(0 24.08376736111111)"/><use xlink:href="#j" transform="matrix(1,0,0,1,65,478.5) translate(25.350477430555557 24.08376736111111)"/><use xlink:href="#i" transform="matrix(1,0,0,1,346.3333333333333,478.5) translate(0 24.08376736111111)"/><use xlink:href="#k" transform="matrix(1,0,0,1,65,515.5) translate(6.133897569444443 24.08376736111111)"/><use xlink:href="#d" transform="matrix(1,0,0,1,346.3333333333333,515.5) translate(0 24.08376736111111)"/><path d="M740 292a12 12 0 0 1 12-12h476a12 12 0 0 1 12 12v201a12 12 0 0 1-12 12H752a12 12 0 0 1-12-12z" fill="#fff"/><path d="M740 320h500v38H740z" fill="#fff"/><path d="M740 357h500v38H740z" fill="#fff"/><path d="M740 394h500v38H740z" fill="#fff"/><path d="M740 431h500v38H740z" fill="#fff"/><path d="M740 468h500v25a12 12 0 0 1-12 12H752a12 12 0 0 1-12-12z" fill="#fff"/><path d="M741 320h498-498zM740 292a12 12 0 0 1 12-12h476a12 12 0 0 1 12 12v201a12 12 0 0 1-12 12H752a12 12 0 0 1-12-12zM890.67 321v183zM1060.15 321v183z" stroke="#3a414a" stroke-width="2" fill="none"/><use xlink:href="#l" transform="matrix(1,0,0,1,750,280) translate(201.09483506944446 28.08376736111111)"/><use xlink:href="#m" transform="matrix(1,0,0,1,745,322.5) translate(26.457031250000007 24.08376736111111)"/><use xlink:href="#c" transform="matrix(1,0,0,1,895.6666666666667,322.5) translate(0 24.08376736111111)"/><use xlink:href="#d" transform="matrix(1,0,0,1,1065.1490146622348,322.5) translate(0 24.08376736111111)"/><use xlink:href="#n" transform="matrix(1,0,0,1,745,359.5) translate(34.52994791666667 24.08376736111111)"/><use xlink:href="#o" transform="matrix(1,0,0,1,895.6666666666667,359.5) translate(0 24.08376736111111)"/><use xlink:href="#p" transform="matrix(1,0,0,1,1065.1490146622348,359.5) translate(0 24.08376736111111)"/><use xlink:href="#q" transform="matrix(1,0,0,1,745,396.5) translate(27.601779513888893 24.08376736111111)"/><use xlink:href="#o" transform="matrix(1,0,0,1,895.6666666666667,396.5) translate(0 24.08376736111111)"/><use xlink:href="#d" transform="matrix(1,0,0,1,1065.1490146622348,396.5) translate(0 24.08376736111111)"/><use xlink:href="#r" transform="matrix(1,0,0,1,745,433.5) translate(37.45963541666667 24.08376736111111)"/><use xlink:href="#s" transform="matrix(1,0,0,1,1065.1490146622348,433.5) translate(0 24.08376736111111)"/><use xlink:href="#t" transform="matrix(1,0,0,1,745,470.5) translate(12.096137152777786 24.08376736111111)"/><use xlink:href="#u" transform="matrix(1,0,0,1,1065.1490146622348,470.5) translate(0 24.08376736111111)"/><path d="M1440 247.5a12 12 0 0 1 12-12h596a12 12 0 0 1 12 12v275a12 12 0 0 1-12 12h-596a12 12 0 0 1-12-12z" fill="#fff"/><path d="M1440 275.5h620v38h-620z" fill="#fff"/><path d="M1440 312.5h620v38h-620z" fill="#fff"/><path d="M1440 349.5h620v38h-620z" fill="#fff"/><path d="M1440 386.5h620v38h-620z" fill="#fff"/><path d="M1440 423.5h620v38h-620z" fill="#fff"/><path d="M1440 460.5h620v38h-620z" fill="#fff"/><path d="M1440 497.5h620v25a12 12 0 0 1-12 12h-596a12 12 0 0 1-12-12z" fill="#fff"/><path d="M1441 275.5h618-618zM1440 247.5a12 12 0 0 1 12-12h596a12 12 0 0 1 12 12v275a12 12 0 0 1-12 12h-596a12 12 0 0 1-12-12zM1707 276.5v257zM1862.36 276.5v257z" stroke="#3a414a" stroke-width="2" fill="none"/><use xlink:href="#v" transform="matrix(1,0,0,1,1450,235.5) translate(269.84136284722223 28.08376736111111)"/><use xlink:href="#n" transform="matrix(1,0,0,1,1445,278) translate(93.02994791666667 24.08376736111111)"/><use xlink:href="#c" transform="matrix(1,0,0,1,1712.003749004262,278) translate(0 24.08376736111111)"/><use xlink:href="#p" transform="matrix(1,0,0,1,1867.358560995821,278) translate(0 24.08376736111111)"/><use xlink:href="#w" transform="matrix(1,0,0,1,1445,315) translate(108.04188368055556 24.08376736111111)"/><use xlink:href="#d" transform="matrix(1,0,0,1,1867.358560995821,315) translate(0 24.08376736111111)"/><use xlink:href="#x" transform="matrix(1,0,0,1,1445,352) translate(90.20334201388889 24.08376736111111)"/><use xlink:href="#p" transform="matrix(1,0,0,1,1867.358560995821,352) translate(0 24.08376736111111)"/><use xlink:href="#j" transform="matrix(1,0,0,1,1445,389) translate(86.85047743055556 24.08376736111111)"/><use xlink:href="#y" transform="matrix(1,0,0,1,1867.358560995821,389) translate(0 24.08376736111111)"/><use xlink:href="#z" transform="matrix(1,0,0,1,1445,426) translate(29.754123263888886 24.08376736111111)"/><use xlink:href="#p" transform="matrix(1,0,0,1,1867.358560995821,426) translate(0 24.08376736111111)"/><use xlink:href="#A" transform="matrix(1,0,0,1,1445,463) translate(47.80967881944444 24.08376736111111)"/><use xlink:href="#d" transform="matrix(1,0,0,1,1867.358560995821,463) translate(0 24.08376736111111)"/><use xlink:href="#B" transform="matrix(1,0,0,1,1445,500) translate(92.95941840277777 24.08376736111111)"/><use xlink:href="#y" transform="matrix(1,0,0,1,1867.358560995821,500) translate(0 24.08376736111111)"/><path d="M80-88a12 12 0 0 1 12-12h436a12 12 0 0 1 12 12V2a12 12 0 0 1-12 12H92A12 12 0 0 1 80 2z" fill="#fff"/><path d="M80-60h460v38H80z" fill="#fff"/><path d="M80-23h460V2a12 12 0 0 1-12 12H92A12 12 0 0 1 80 2z" fill="#fff"/><path d="M81-60h458H81zM80-88a12 12 0 0 1 12-12h436a12 12 0 0 1 12 12V2a12 12 0 0 1-12 12H92A12 12 0 0 1 80 2zM230.76-59v72zM357.28-59v72z" stroke="#3a414a" stroke-width="2" fill="none"/><use xlink:href="#C" transform="matrix(1,0,0,1,90,-100) translate(147.14301215277777 28.08376736111111)"/><use xlink:href="#b" transform="matrix(1,0,0,1,85,-57.5) translate(21.73697916666667 24.08376736111111)"/><use xlink:href="#D" transform="matrix(1,0,0,1,235.76203644969178,-57.5) translate(0 24.08376736111111)"/><use xlink:href="#E" transform="matrix(1,0,0,1,235.76203644969178,-57.5) translate(41.77517361111111 24.08376736111111)"/><use xlink:href="#d" transform="matrix(1,0,0,1,362.278145443361,-57.5) translate(0 24.08376736111111)"/><use xlink:href="#F" transform="matrix(1,0,0,1,85,-20.5) translate(27.68858506944445 24.08376736111111)"/><use xlink:href="#D" transform="matrix(1,0,0,1,235.76203644969178,-20.5) translate(0 24.08376736111111)"/><use xlink:href="#G" transform="matrix(1,0,0,1,235.76203644969178,-20.5) translate(41.77517361111111 24.08376736111111)"/><use xlink:href="#d" transform="matrix(1,0,0,1,362.278145443361,-20.5) translate(0 24.08376736111111)"/><path d="M750-88a12 12 0 0 1 12-12h476a12 12 0 0 1 12 12V2a12 12 0 0 1-12 12H762a12 12 0 0 1-12-12z" fill="#fff"/><path d="M750-60h500v38H750z" fill="#fff"/><path d="M750-23h500V2a12 12 0 0 1-12 12H762a12 12 0 0 1-12-12z" fill="#fff"/><path d="M751-60h498-498zM750-88a12 12 0 0 1 12-12h476a12 12 0 0 1 12 12V2a12 12 0 0 1-12 12H762a12 12 0 0 1-12-12zM893.9-59v72zM1029.22-59v72z" stroke="#3a414a" stroke-width="2" fill="none"/><use xlink:href="#H" transform="matrix(1,0,0,1,760,-100) translate(203.80208333333334 28.08376736111111)"/><use xlink:href="#F" transform="matrix(1,0,0,1,755,-57.5) translate(24.18858506944445 24.08376736111111)"/><use xlink:href="#c" transform="matrix(1,0,0,1,898.8863843856237,-57.5) translate(0 24.08376736111111)"/><use xlink:href="#d" transform="matrix(1,0,0,1,1034.21875,-57.5) translate(0 24.08376736111111)"/><use xlink:href="#I" transform="matrix(1,0,0,1,755,-20.5) translate(-1.0718315972222285 24.08376736111111)"/><use xlink:href="#i" transform="matrix(1,0,0,1,1034.21875,-20.5) translate(0 24.08376736111111)"/><path d="M39 346.25H25a6 6 0 0 1-6-6V-35.5a6 6 0 0 1 6-6h35.18M59 346.25H39m0-10v20M78.55-41.5h-20m20-10l-20 10m20 10l-20-10M1419 294h-73a6 6 0 0 0-6 6v69.5a6 6 0 0 1-6 6h-74.18M1439 294h-20m0-10v20M1241.45 375.5h20m-20 10l20-10m-20-10l20 10M541 346.5h83a6 6 0 0 1 6 6v54a6 6 0 0 0 6 6h84.18M521 346.5h20m0 10v-20M738.55 412.5h-20m20-10l-20 10m20 10l-20-10M729-41.5h-78a6 6 0 0 0-6 6v25a6 6 0 0 1-6 6h-79.18M749-41.5h-20m0-10v20M541.45-4.5h20m-20 10l20-10m-20-10l20 10" stroke="#3a414a" stroke-width="2" fill="none"/><path d="M180-360a6 6 0 0 1 6-6h1508a6 6 0 0 1 6 6v162.56a6 6 0 0 1-6 6H186a6 6 0 0 1-6-6z" fill="none"/><g><use xlink:href="#J" transform="matrix(1,0,0,1,185,-361) translate(0 97.05078125)"/><use xlink:href="#K" transform="matrix(1,0,0,1,185,-361) translate(123.76953125 97.05078125)"/><use xlink:href="#L" transform="matrix(1,0,0,1,185,-361) translate(375.1953125 97.05078125)"/><use xlink:href="#M" transform="matrix(1,0,0,1,185,-361) translate(548.359375 97.05078125)"/><use xlink:href="#N" transform="matrix(1,0,0,1,185,-361) translate(598.28125 97.05078125)"/><use xlink:href="#O" transform="matrix(1,0,0,1,185,-361) translate(791.6796875 97.05078125)"/><use xlink:href="#P" transform="matrix(1,0,0,1,185,-361) translate(1002.265625 97.05078125)"/></g><defs><path d="M158 0v-1118h175l1 205c55-151 181-225 313-225 147 0 245 90 285 228 53-141 190-228 352-228 194 0 352 125 352 384V0h-181v-749c0-161-105-225-225-225-151 0-243 103-243 244V0H807v-767c0-124-93-207-219-207-131 0-250 92-250 270V0H158" id="Q"/><path d="M613 24c-304 0-509-231-509-576 0-350 205-580 509-580 305 0 511 230 511 580 0 345-206 576-511 576zm0-161c226 0 329-195 329-415 0-222-103-419-329-419-223 0-326 196-326 419 0 220 103 415 326 415" id="R"/><path d="M481 0L54-1118h197c107 314 236 620 325 951 87-331 217-637 324-951h197L670 0H481" id="S"/><path d="M158 0v-1118h180V0H158zm91-1301c-68 0-125-53-125-119s57-119 125-119c69 0 126 53 126 119s-57 119-126 119" id="T"/><path d="M628 24c-324 0-524-230-524-574 0-343 198-582 503-582 237 0 487 146 487 559v75H286c9 234 145 362 343 362 132 0 231-58 273-172l174 48C1024-91 857 24 628 24zM287-650h624c-17-190-120-322-304-322-192 0-309 151-320 322" id="U"/><path d="M538 24C308 24 148-78 108-271l171-41c32 123 123 178 257 178 156 0 256-77 256-169 0-77-54-128-164-154l-186-44c-203-48-300-148-300-305 0-192 176-326 414-326 230 0 351 112 402 269l-163 42c-31-80-94-158-238-158-133 0-233 69-233 162 0 83 57 129 188 160l169 40c203 48 298 149 298 302 0 196-179 339-441 339" id="V"/><path d="M934 0v166H0V0h934" id="W"/><path d="M613 24c-304 0-509-231-509-576 0-350 205-580 509-580 216 0 392 114 453 309l-173 49c-33-115-133-197-280-197-223 0-326 196-326 419 0 220 103 415 326 415 150 0 252-85 285-206l172 49C1010-95 832 24 613 24" id="X"/><path d="M338-1490V0H158v-1490h180" id="Y"/><path d="M471 26C259 26 90-98 90-318c0-256 228-303 435-329 202-27 287-16 287-108 0-139-79-219-234-219-161 0-248 86-283 164l-173-57c86-203 278-265 451-265 150 0 419 46 419 395V0H815v-152h-12C765-73 660 26 471 26zm31-159c199 0 310-134 310-271v-155c-30 35-226 55-295 64-131 17-246 59-246 186 0 116 97 176 231 176" id="Z"/><path d="M338-670V0H158v-1118h173l1 207c72-158 192-221 342-221 226 0 378 139 378 422V0H872v-695c0-172-96-275-252-275-161 0-282 109-282 300" id="aa"/><g id="a"><use transform="matrix(0.010850694444444444,0,0,0.010850694444444444,0,0)" xlink:href="#Q"/><use transform="matrix(0.010850694444444444,0,0,0.010850694444444444,19.466145833333332,0)" xlink:href="#R"/><use transform="matrix(0.010850694444444444,0,0,0.010850694444444444,32.35677083333333,0)" xlink:href="#S"/><use transform="matrix(0.010850694444444444,0,0,0.010850694444444444,44.845920138888886,0)" xlink:href="#T"/><use transform="matrix(0.010850694444444444,0,0,0.010850694444444444,50.22786458333333,0)" xlink:href="#U"/><use transform="matrix(0.010850694444444444,0,0,0.010850694444444444,63.18359375,0)" xlink:href="#V"/><use transform="matrix(0.010850694444444444,0,0,0.010850694444444444,74.91319444444444,0)" xlink:href="#W"/><use transform="matrix(0.010850694444444444,0,0,0.010850694444444444,85.04774305555556,0)" xlink:href="#X"/><use transform="matrix(0.010850694444444444,0,0,0.010850694444444444,97.74305555555556,0)" xlink:href="#Y"/><use transform="matrix(0.010850694444444444,0,0,0.010850694444444444,103.125,0)" xlink:href="#U"/><use transform="matrix(0.010850694444444444,0,0,0.010850694444444444,116.29774305555556,0)" xlink:href="#Z"/><use transform="matrix(0.010850694444444444,0,0,0.010850694444444444,128.77604166666666,0)" xlink:href="#aa"/></g><path d="M180 0v-1490h270l367 940c28 72 75 218 110 339 35-117 81-264 110-339l362-940h271V0h-187c2-448-5-837 7-1287-157 497-311 829-483 1287H842C666-458 514-784 354-1284c12 438 5 843 7 1284H180" id="ab"/><path d="M370-1490V0H180v-1490h190" id="ac"/><path d="M645 0H180v-1490h484c435 0 692 280 692 742 0 466-257 748-711 748zM370-168h263c363 0 539-218 539-580 0-358-176-574-521-574H370v1154" id="ad"/><g id="b"><use transform="matrix(0.010850694444444444,0,0,0.010850694444444444,0,0)" xlink:href="#ab"/><use transform="matrix(0.010850694444444444,0,0,0.010850694444444444,20.07378472222222,0)" xlink:href="#R"/><use transform="matrix(0.010850694444444444,0,0,0.010850694444444444,32.96440972222222,0)" xlink:href="#S"/><use transform="matrix(0.010850694444444444,0,0,0.010850694444444444,45.45355902777778,0)" xlink:href="#T"/><use transform="matrix(0.010850694444444444,0,0,0.010850694444444444,50.83550347222222,0)" xlink:href="#U"/><use transform="matrix(0.010850694444444444,0,0,0.010850694444444444,63.791232638888886,0)" xlink:href="#V"/><use transform="matrix(0.010850694444444444,0,0,0.010850694444444444,75.52083333333333,0)" xlink:href="#ac"/><use transform="matrix(0.010850694444444444,0,0,0.010850694444444444,81.48871527777777,0)" xlink:href="#ad"/></g><path d="M180 0v-1490h510c348 0 508 209 508 474 0 266-160 477-507 477H370V0H180zm190-706h312c236 0 327-133 327-310 0-176-91-307-329-307H370v617" id="ae"/><path d="M180 0v-1490h190c0 262 1 526-3 784 217-279 467-523 702-784h249L716-845 1319 0h-225L585-716 370-489V0H180" id="af"/><g id="c"><use transform="matrix(0.010850694444444444,0,0,0.010850694444444444,0,0)" xlink:href="#ae"/><use transform="matrix(0.010850694444444444,0,0,0.010850694444444444,14.192708333333332,0)" xlink:href="#af"/></g><path d="M180 0v-1490h224l606 953c40 63 108 177 176 312-27-437-7-821-13-1265h190V0h-226C860-448 622-778 356-1262c27 476 11 792 15 1262H180" id="ag"/><path d="M98-1322v-168h1126v168H757V0H567v-1322H98" id="ah"/><g id="d"><use transform="matrix(0.010850694444444444,0,0,0.010850694444444444,0,0)" xlink:href="#ac"/><use transform="matrix(0.010850694444444444,0,0,0.010850694444444444,5.967881944444445,0)" xlink:href="#ag"/><use transform="matrix(0.010850694444444444,0,0,0.010850694444444444,22.71050347222222,0)" xlink:href="#ah"/></g><path d="M598-1118v154H368v674c0 100 37 144 132 144 23 0 62-6 92-12L629-6c-37 13-88 20-134 20-193 0-307-107-307-290v-688H20v-154h168v-266h180v266h230" id="ai"/><g id="e"><use transform="matrix(0.010850694444444444,0,0,0.010850694444444444,0,0)" xlink:href="#ab"/><use transform="matrix(0.010850694444444444,0,0,0.010850694444444444,20.07378472222222,0)" xlink:href="#R"/><use transform="matrix(0.010850694444444444,0,0,0.010850694444444444,32.96440972222222,0)" xlink:href="#S"/><use transform="matrix(0.010850694444444444,0,0,0.010850694444444444,45.45355902777778,0)" xlink:href="#T"/><use transform="matrix(0.010850694444444444,0,0,0.010850694444444444,50.83550347222222,0)" xlink:href="#U"/><use transform="matrix(0.010850694444444444,0,0,0.010850694444444444,63.791232638888886,0)" xlink:href="#V"/><use transform="matrix(0.010850694444444444,0,0,0.010850694444444444,75.52083333333333,0)" xlink:href="#W"/><use transform="matrix(0.010850694444444444,0,0,0.010850694444444444,84.39670138888889,0)" xlink:href="#ah"/><use transform="matrix(0.010850694444444444,0,0,0.010850694444444444,98.74131944444444,0)" xlink:href="#T"/><use transform="matrix(0.010850694444444444,0,0,0.010850694444444444,104.12326388888889,0)" xlink:href="#ai"/><use transform="matrix(0.010850694444444444,0,0,0.010850694444444444,111.39322916666666,0)" xlink:href="#Y"/><use transform="matrix(0.010850694444444444,0,0,0.010850694444444444,116.7751736111111,0)" xlink:href="#U"/></g><path d="M600 0L52-1490h200c166 485 304 806 458 1336 156-533 285-846 449-1336h202L819 0H600" id="aj"/><path d="M52 0l541-1490h220L1361 0h-200l-149-416H398L254 0H52zm404-582h497c-103-290-145-390-251-756-108 377-145 460-246 756" id="ak"/><path d="M180 0v-1490h510c348 0 508 194 508 460 0 198-88 351-276 417L1256 0h-220L726-579c-117 2-238 0-356 1V0H180zm190-747h312c235 0 327-108 327-283 0-177-92-293-329-293H370v576" id="al"/><path d="M783 20c-382 0-661-292-661-764 0-473 279-766 661-766 302 0 548 182 601 489h-190c-42-204-217-313-411-313-268 0-476 208-476 590 0 381 209 588 476 588 195 0 369-110 411-313h190c-52 303-296 489-601 489" id="am"/><path d="M180 0v-1490h190v644h782v-644h190V0h-190v-678H370V0H180" id="an"/><path d="M218-607c0-325 108-727 258-974h175c-155 315-250 682-250 974 0 265 78 531 250 886H476C306-10 218-315 218-607" id="ao"/><path d="M154 0v-137l495-537c165-179 249-281 249-418 0-156-121-253-280-253-170 0-278 110-278 278H158c0-264 200-443 465-443 266 0 455 183 455 416 0 161-73 288-336 568L416-179v12h687V0H154" id="ap"/><path d="M626 20c-262 0-458-168-468-396h184c12 133 134 229 284 229 180 0 311-137 311-326 0-192-136-335-323-335-92 0-196 33-255 78l-178-22 88-738h784v167H429l-51 435h8c61-51 160-87 263-87 273 0 474 211 474 499 0 286-210 496-497 496" id="aq"/><path d="M96 279C273-86 346-350 346-607c0-292-95-659-250-974h175c150 246 258 650 258 974 0 297-91 602-258 886H96" id="ar"/><g id="f"><use transform="matrix(0.010850694444444444,0,0,0.010850694444444444,0,0)" xlink:href="#aj"/><use transform="matrix(0.010850694444444444,0,0,0.010850694444444444,13.81293402777778,0)" xlink:href="#ak"/><use transform="matrix(0.010850694444444444,0,0,0.010850694444444444,29.144965277777775,0)" xlink:href="#al"/><use transform="matrix(0.010850694444444444,0,0,0.010850694444444444,43.44618055555556,0)" xlink:href="#am"/><use transform="matrix(0.010850694444444444,0,0,0.010850694444444444,59.67881944444444,0)" xlink:href="#an"/><use transform="matrix(0.010850694444444444,0,0,0.010850694444444444,76.19357638888889,0)" xlink:href="#ak"/><use transform="matrix(0.010850694444444444,0,0,0.010850694444444444,91.52560763888889,0)" xlink:href="#al"/><use transform="matrix(0.010850694444444444,0,0,0.010850694444444444,105.82682291666666,0)" xlink:href="#ao"/><use transform="matrix(0.010850694444444444,0,0,0.010850694444444444,113.93229166666666,0)" xlink:href="#ap"/><use transform="matrix(0.010850694444444444,0,0,0.010850694444444444,127.48480902777777,0)" xlink:href="#aq"/><use transform="matrix(0.010850694444444444,0,0,0.010850694444444444,140.99392361111111,0)" xlink:href="#aq"/><use transform="matrix(0.010850694444444444,0,0,0.010850694444444444,154.50303819444446,0)" xlink:href="#ar"/></g><path d="M600 0v-610L52-1490h220l295 481c50 82 90 150 130 243 40-96 80-164 128-243l294-481h219L790-610V0H600" id="as"/><path d="M158 0v-1118h174v172h12c41-113 157-188 290-188 26 0 70 2 91 3v181c-11-2-60-10-108-10-161 0-279 109-279 260V0H158" id="at"/><g id="g"><use transform="matrix(0.010850694444444444,0,0,0.010850694444444444,0,0)" xlink:href="#as"/><use transform="matrix(0.010850694444444444,0,0,0.010850694444444444,13.37890625,0)" xlink:href="#U"/><use transform="matrix(0.010850694444444444,0,0,0.010850694444444444,26.55164930555556,0)" xlink:href="#Z"/><use transform="matrix(0.010850694444444444,0,0,0.010850694444444444,39.02994791666667,0)" xlink:href="#at"/></g><path d="M180 0v-1490h190v1322h690V0H180" id="au"/><path d="M611 442c-248 0-391-105-460-228l146-94c47 65 117 165 314 165 178 0 307-82 307-266v-224h-17C863-141 792-18 576-18c-268 0-472-195-472-546 0-346 197-568 476-568 216 0 288 133 326 193h17v-179h175V29c0 289-215 413-487 413zm-5-620c203 0 314-146 314-390 0-237-108-403-314-403-213 0-319 180-319 403 0 230 109 390 319 390" id="av"/><path d="M537 14c-226 0-379-139-379-422v-710h180v695c0 172 97 275 253 275 160 0 281-109 281-300v-670h181V0H879v-209C806-46 684 14 537 14" id="aw"/><g id="h"><use transform="matrix(0.010850694444444444,0,0,0.010850694444444444,0,0)" xlink:href="#au"/><use transform="matrix(0.010850694444444444,0,0,0.010850694444444444,12.565104166666666,0)" xlink:href="#Z"/><use transform="matrix(0.010850694444444444,0,0,0.010850694444444444,25.04340277777778,0)" xlink:href="#aa"/><use transform="matrix(0.010850694444444444,0,0,0.010850694444444444,38.17274305555556,0)" xlink:href="#av"/><use transform="matrix(0.010850694444444444,0,0,0.010850694444444444,51.80121527777778,0)" xlink:href="#aw"/><use transform="matrix(0.010850694444444444,0,0,0.010850694444444444,64.94140625,0)" xlink:href="#Z"/><use transform="matrix(0.010850694444444444,0,0,0.010850694444444444,77.41970486111111,0)" xlink:href="#av"/><use transform="matrix(0.010850694444444444,0,0,0.010850694444444444,91.04817708333334,0)" xlink:href="#U"/></g><path d="M653-1490V0H466v-1314h-10L96-1047v-204l324-239h233" id="ax"/><path d="M646 20c-332 0-524-278-524-764 0-483 194-766 524-766s524 283 524 766c0 485-191 764-524 764zm0-166c218 0 341-220 341-598 0-380-123-601-341-601s-341 222-341 601c0 378 123 598 341 598" id="ay"/><g id="i"><use transform="matrix(0.010850694444444444,0,0,0.010850694444444444,0,0)" xlink:href="#aj"/><use transform="matrix(0.010850694444444444,0,0,0.010850694444444444,13.81293402777778,0)" xlink:href="#ak"/><use transform="matrix(0.010850694444444444,0,0,0.010850694444444444,29.144965277777775,0)" xlink:href="#al"/><use transform="matrix(0.010850694444444444,0,0,0.010850694444444444,43.44618055555556,0)" xlink:href="#am"/><use transform="matrix(0.010850694444444444,0,0,0.010850694444444444,59.67881944444444,0)" xlink:href="#an"/><use transform="matrix(0.010850694444444444,0,0,0.010850694444444444,76.19357638888889,0)" xlink:href="#ak"/><use transform="matrix(0.010850694444444444,0,0,0.010850694444444444,91.52560763888889,0)" xlink:href="#al"/><use transform="matrix(0.010850694444444444,0,0,0.010850694444444444,105.82682291666666,0)" xlink:href="#ao"/><use transform="matrix(0.010850694444444444,0,0,0.010850694444444444,113.93229166666666,0)" xlink:href="#ax"/><use transform="matrix(0.010850694444444444,0,0,0.010850694444444444,122.97092013888889,0)" xlink:href="#ay"/><use transform="matrix(0.010850694444444444,0,0,0.010850694444444444,136.99001736111111,0)" xlink:href="#ay"/><use transform="matrix(0.010850694444444444,0,0,0.010850694444444444,151.00911458333334,0)" xlink:href="#ar"/></g><path d="M140 405l46-156c120 36 205 19 263-150l32-93L54-1118h197c107 313 237 620 324 950 87-331 219-637 326-950h196L606 167c-68 178-176 259-334 259-64 0-113-12-132-21" id="az"/><g id="j"><use transform="matrix(0.010850694444444444,0,0,0.010850694444444444,0,0)" xlink:href="#am"/><use transform="matrix(0.010850694444444444,0,0,0.010850694444444444,16.23263888888889,0)" xlink:href="#R"/><use transform="matrix(0.010850694444444444,0,0,0.010850694444444444,29.557291666666664,0)" xlink:href="#aw"/><use transform="matrix(0.010850694444444444,0,0,0.010850694444444444,42.697482638888886,0)" xlink:href="#aa"/><use transform="matrix(0.010850694444444444,0,0,0.010850694444444444,55.826822916666664,0)" xlink:href="#ai"/><use transform="matrix(0.010850694444444444,0,0,0.010850694444444444,63.09678819444444,0)" xlink:href="#at"/><use transform="matrix(0.010850694444444444,0,0,0.010850694444444444,71.80989583333333,0)" xlink:href="#az"/></g><path d="M409 0L70-1118h191c89 329 165 560 243 925 75-353 154-601 240-925h192c85 325 161 564 235 922 77-354 157-598 244-922h191L1267 0h-179c-86-307-176-590-250-913C763-588 675-308 588 0H409" id="aA"/><g id="k"><use transform="matrix(0.010850694444444444,0,0,0.010850694444444444,0,0)" xlink:href="#ah"/><use transform="matrix(0.010850694444444444,0,0,0.010850694444444444,12.608506944444445,0)" xlink:href="#R"/><use transform="matrix(0.010850694444444444,0,0,0.010850694444444444,25.93315972222222,0)" xlink:href="#ai"/><use transform="matrix(0.010850694444444444,0,0,0.010850694444444444,33.31163194444444,0)" xlink:href="#Z"/><use transform="matrix(0.010850694444444444,0,0,0.010850694444444444,45.78993055555556,0)" xlink:href="#Y"/><use transform="matrix(0.010850694444444444,0,0,0.010850694444444444,51.171875,0)" xlink:href="#W"/><use transform="matrix(0.010850694444444444,0,0,0.010850694444444444,59.54861111111112,0)" xlink:href="#aj"/><use transform="matrix(0.010850694444444444,0,0,0.010850694444444444,74.88064236111111,0)" xlink:href="#T"/><use transform="matrix(0.010850694444444444,0,0,0.010850694444444444,80.26258680555556,0)" xlink:href="#U"/><use transform="matrix(0.010850694444444444,0,0,0.010850694444444444,92.8168402777778,0)" xlink:href="#aA"/><use transform="matrix(0.010850694444444444,0,0,0.010850694444444444,111.00260416666666,0)" xlink:href="#V"/></g><g id="l"><use transform="matrix(0.010850694444444444,0,0,0.010850694444444444,0,0)" xlink:href="#al"/><use transform="matrix(0.010850694444444444,0,0,0.010850694444444444,14.192708333333332,0)" xlink:href="#Z"/><use transform="matrix(0.010850694444444444,0,0,0.010850694444444444,26.671006944444443,0)" xlink:href="#ai"/><use transform="matrix(0.010850694444444444,0,0,0.010850694444444444,33.94097222222222,0)" xlink:href="#T"/><use transform="matrix(0.010850694444444444,0,0,0.010850694444444444,39.322916666666664,0)" xlink:href="#aa"/><use transform="matrix(0.010850694444444444,0,0,0.010850694444444444,52.45225694444444,0)" xlink:href="#av"/><use transform="matrix(0.010850694444444444,0,0,0.010850694444444444,66.08072916666666,0)" xlink:href="#V"/></g><g id="m"><use transform="matrix(0.010850694444444444,0,0,0.010850694444444444,0,0)" xlink:href="#al"/><use transform="matrix(0.010850694444444444,0,0,0.010850694444444444,14.192708333333332,0)" xlink:href="#Z"/><use transform="matrix(0.010850694444444444,0,0,0.010850694444444444,26.671006944444443,0)" xlink:href="#ai"/><use transform="matrix(0.010850694444444444,0,0,0.010850694444444444,33.94097222222222,0)" xlink:href="#T"/><use transform="matrix(0.010850694444444444,0,0,0.010850694444444444,39.322916666666664,0)" xlink:href="#aa"/><use transform="matrix(0.010850694444444444,0,0,0.010850694444444444,52.45225694444444,0)" xlink:href="#av"/><use transform="matrix(0.010850694444444444,0,0,0.010850694444444444,66.08072916666666,0)" xlink:href="#ac"/><use transform="matrix(0.010850694444444444,0,0,0.010850694444444444,72.0486111111111,0)" xlink:href="#ad"/></g><path d="M763 24c-353 0-583-224-583-531v-983h190v968c0 214 149 370 393 370 243 0 391-156 391-370v-968h190v983c0 307-230 531-581 531" id="aB"/><g id="n"><use transform="matrix(0.010850694444444444,0,0,0.010850694444444444,0,0)" xlink:href="#aB"/><use transform="matrix(0.010850694444444444,0,0,0.010850694444444444,16.536458333333332,0)" xlink:href="#V"/><use transform="matrix(0.010850694444444444,0,0,0.010850694444444444,28.266059027777775,0)" xlink:href="#U"/><use transform="matrix(0.010850694444444444,0,0,0.010850694444444444,41.22178819444444,0)" xlink:href="#at"/><use transform="matrix(0.010850694444444444,0,0,0.010850694444444444,49.93489583333333,0)" xlink:href="#ac"/><use transform="matrix(0.010850694444444444,0,0,0.010850694444444444,55.90277777777778,0)" xlink:href="#ad"/></g><path d="M180 0v-1490h901v168H370v510h643v168H370V0H180" id="aC"/><g id="o"><use transform="matrix(0.010850694444444444,0,0,0.010850694444444444,0,0)" xlink:href="#aC"/><use transform="matrix(0.010850694444444444,0,0,0.010850694444444444,13.118489583333332,0)" xlink:href="#af"/></g><g id="p"><use transform="matrix(0.010850694444444444,0,0,0.010850694444444444,0,0)" xlink:href="#aj"/><use transform="matrix(0.010850694444444444,0,0,0.010850694444444444,13.81293402777778,0)" xlink:href="#ak"/><use transform="matrix(0.010850694444444444,0,0,0.010850694444444444,29.144965277777775,0)" xlink:href="#al"/><use transform="matrix(0.010850694444444444,0,0,0.010850694444444444,43.44618055555556,0)" xlink:href="#am"/><use transform="matrix(0.010850694444444444,0,0,0.010850694444444444,59.67881944444444,0)" xlink:href="#an"/><use transform="matrix(0.010850694444444444,0,0,0.010850694444444444,76.19357638888889,0)" xlink:href="#ak"/><use transform="matrix(0.010850694444444444,0,0,0.010850694444444444,91.52560763888889,0)" xlink:href="#al"/><use transform="matrix(0.010850694444444444,0,0,0.010850694444444444,105.82682291666666,0)" xlink:href="#ao"/><use transform="matrix(0.010850694444444444,0,0,0.010850694444444444,113.93229166666666,0)" xlink:href="#ap"/><use transform="matrix(0.010850694444444444,0,0,0.010850694444444444,127.48480902777777,0)" xlink:href="#ay"/><use transform="matrix(0.010850694444444444,0,0,0.010850694444444444,141.50390625,0)" xlink:href="#ar"/></g><g id="q"><use transform="matrix(0.010850694444444444,0,0,0.010850694444444444,0,0)" xlink:href="#ab"/><use transform="matrix(0.010850694444444444,0,0,0.010850694444444444,20.07378472222222,0)" xlink:href="#R"/><use transform="matrix(0.010850694444444444,0,0,0.010850694444444444,32.96440972222222,0)" xlink:href="#S"/><use transform="matrix(0.010850694444444444,0,0,0.010850694444444444,45.45355902777778,0)" xlink:href="#T"/><use transform="matrix(0.010850694444444444,0,0,0.010850694444444444,50.83550347222222,0)" xlink:href="#U"/><use transform="matrix(0.010850694444444444,0,0,0.010850694444444444,63.791232638888886,0)" xlink:href="#ac"/><use transform="matrix(0.010850694444444444,0,0,0.010850694444444444,69.75911458333333,0)" xlink:href="#ad"/></g><g id="r"><use transform="matrix(0.010850694444444444,0,0,0.010850694444444444,0,0)" xlink:href="#al"/><use transform="matrix(0.010850694444444444,0,0,0.010850694444444444,14.192708333333332,0)" xlink:href="#Z"/><use transform="matrix(0.010850694444444444,0,0,0.010850694444444444,26.671006944444443,0)" xlink:href="#ai"/><use transform="matrix(0.010850694444444444,0,0,0.010850694444444444,33.94097222222222,0)" xlink:href="#T"/><use transform="matrix(0.010850694444444444,0,0,0.010850694444444444,39.322916666666664,0)" xlink:href="#aa"/><use transform="matrix(0.010850694444444444,0,0,0.010850694444444444,52.45225694444444,0)" xlink:href="#av"/></g><path d="M784 20c-382 0-662-292-662-764 0-473 280-766 662-766s660 293 660 766c0 472-278 764-660 764zm0-176c266 0 475-207 475-588 0-383-209-590-475-590-268 0-477 208-477 590 0 380 209 588 477 588" id="aD"/><g id="s"><use transform="matrix(0.010850694444444444,0,0,0.010850694444444444,0,0)" xlink:href="#aC"/><use transform="matrix(0.010850694444444444,0,0,0.010850694444444444,13.118489583333332,0)" xlink:href="#au"/><use transform="matrix(0.010850694444444444,0,0,0.010850694444444444,25.05425347222222,0)" xlink:href="#aD"/><use transform="matrix(0.010850694444444444,0,0,0.010850694444444444,41.286892361111114,0)" xlink:href="#ak"/><use transform="matrix(0.010850694444444444,0,0,0.010850694444444444,54.73090277777778,0)" xlink:href="#ah"/></g><path d="M158 418v-1536h174v179h20c37-59 106-193 324-193 279 0 474 222 474 576 0 356-194 580-473 580-213 0-288-135-325-197h-14v591H158zm492-555c209 0 317-186 317-421 0-232-105-413-317-413-206 0-314 166-314 413 0 249 111 421 314 421" id="aE"/><g id="t"><use transform="matrix(0.010850694444444444,0,0,0.010850694444444444,0,0)" xlink:href="#ah"/><use transform="matrix(0.010850694444444444,0,0,0.010850694444444444,14.344618055555555,0)" xlink:href="#T"/><use transform="matrix(0.010850694444444444,0,0,0.010850694444444444,19.7265625,0)" xlink:href="#Q"/><use transform="matrix(0.010850694444444444,0,0,0.010850694444444444,39.19270833333333,0)" xlink:href="#U"/><use transform="matrix(0.010850694444444444,0,0,0.010850694444444444,52.148437499999986,0)" xlink:href="#V"/><use transform="matrix(0.010850694444444444,0,0,0.010850694444444444,63.878038194444436,0)" xlink:href="#ai"/><use transform="matrix(0.010850694444444444,0,0,0.010850694444444444,71.25651041666666,0)" xlink:href="#Z"/><use transform="matrix(0.010850694444444444,0,0,0.010850694444444444,83.73480902777777,0)" xlink:href="#Q"/><use transform="matrix(0.010850694444444444,0,0,0.010850694444444444,103.20095486111111,0)" xlink:href="#aE"/></g><path d="M180 0v-1490h908v168H370v486h669v168H370v500h727V0H180" id="aF"/><g id="u"><use transform="matrix(0.010850694444444444,0,0,0.010850694444444444,0,0)" xlink:href="#ad"/><use transform="matrix(0.010850694444444444,0,0,0.010850694444444444,15.27777777777778,0)" xlink:href="#ak"/><use transform="matrix(0.010850694444444444,0,0,0.010850694444444444,28.721788194444443,0)" xlink:href="#ah"/><use transform="matrix(0.010850694444444444,0,0,0.010850694444444444,43.06640625,0)" xlink:href="#aF"/><use transform="matrix(0.010850694444444444,0,0,0.010850694444444444,56.42361111111112,0)" xlink:href="#ah"/><use transform="matrix(0.010850694444444444,0,0,0.010850694444444444,70.76822916666667,0)" xlink:href="#ac"/><use transform="matrix(0.010850694444444444,0,0,0.010850694444444444,76.73611111111111,0)" xlink:href="#ab"/><use transform="matrix(0.010850694444444444,0,0,0.010850694444444444,96.80989583333334,0)" xlink:href="#aF"/></g><g id="v"><use transform="matrix(0.010850694444444444,0,0,0.010850694444444444,0,0)" xlink:href="#aB"/><use transform="matrix(0.010850694444444444,0,0,0.010850694444444444,16.536458333333332,0)" xlink:href="#V"/><use transform="matrix(0.010850694444444444,0,0,0.010850694444444444,28.266059027777775,0)" xlink:href="#U"/><use transform="matrix(0.010850694444444444,0,0,0.010850694444444444,41.22178819444444,0)" xlink:href="#at"/><use transform="matrix(0.010850694444444444,0,0,0.010850694444444444,49.58767361111111,0)" xlink:href="#V"/></g><g id="w"><use transform="matrix(0.010850694444444444,0,0,0.010850694444444444,0,0)" xlink:href="#ak"/><use transform="matrix(0.010850694444444444,0,0,0.010850694444444444,15.33203125,0)" xlink:href="#av"/><use transform="matrix(0.010850694444444444,0,0,0.010850694444444444,28.96050347222222,0)" xlink:href="#U"/></g><path d="M789 20c-398 0-667-293-667-764 0-473 273-766 655-766 315 0 558 198 612 487h-196c-61-191-204-311-415-311-262 0-471 207-471 590 0 380 208 588 482 588 249 0 420-165 425-427H828v-166h572v163c0 370-256 606-611 606" id="aG"/><path d="M577 24c-279 0-473-224-473-580 0-354 195-576 474-576 218 0 287 134 324 193h14v-551h180V0H922v-173h-20C865-111 790 24 577 24zm27-161c203 0 314-172 314-421 0-247-108-413-314-413-212 0-317 181-317 413 0 235 108 421 317 421" id="aH"/><g id="x"><use transform="matrix(0.010850694444444444,0,0,0.010850694444444444,0,0)" xlink:href="#aG"/><use transform="matrix(0.010850694444444444,0,0,0.010850694444444444,16.57986111111111,0)" xlink:href="#U"/><use transform="matrix(0.010850694444444444,0,0,0.010850694444444444,29.535590277777775,0)" xlink:href="#aa"/><use transform="matrix(0.010850694444444444,0,0,0.010850694444444444,42.66493055555556,0)" xlink:href="#aH"/><use transform="matrix(0.010850694444444444,0,0,0.010850694444444444,56.271701388888886,0)" xlink:href="#U"/><use transform="matrix(0.010850694444444444,0,0,0.010850694444444444,69.22743055555556,0)" xlink:href="#at"/></g><g id="y"><use transform="matrix(0.010850694444444444,0,0,0.010850694444444444,0,0)" xlink:href="#aj"/><use transform="matrix(0.010850694444444444,0,0,0.010850694444444444,13.81293402777778,0)" xlink:href="#ak"/><use transform="matrix(0.010850694444444444,0,0,0.010850694444444444,29.144965277777775,0)" xlink:href="#al"/><use transform="matrix(0.010850694444444444,0,0,0.010850694444444444,43.44618055555556,0)" xlink:href="#am"/><use transform="matrix(0.010850694444444444,0,0,0.010850694444444444,59.67881944444444,0)" xlink:href="#an"/><use transform="matrix(0.010850694444444444,0,0,0.010850694444444444,76.19357638888889,0)" xlink:href="#ak"/><use transform="matrix(0.010850694444444444,0,0,0.010850694444444444,91.52560763888889,0)" xlink:href="#al"/><use transform="matrix(0.010850694444444444,0,0,0.010850694444444444,105.82682291666666,0)" xlink:href="#ao"/><use transform="matrix(0.010850694444444444,0,0,0.010850694444444444,113.93229166666666,0)" xlink:href="#aq"/><use transform="matrix(0.010850694444444444,0,0,0.010850694444444444,127.44140625,0)" xlink:href="#ay"/><use transform="matrix(0.010850694444444444,0,0,0.010850694444444444,141.4605034722222,0)" xlink:href="#ar"/></g><path d="M657 26c-323 0-524-166-541-416h195c15 169 171 246 346 246 202 0 356-106 356-265 5-203-294-238-475-293-239-73-380-191-380-389 0-252 224-419 512-419 294 0 499 171 508 396H992c-17-145-151-228-328-228-193 0-321 102-321 242 0 156 175 211 284 241l149 41c160 44 422 134 422 412 0 244-197 432-541 432" id="aI"/><path d="M677 24c-213 0-288-135-325-197h-20V0H158v-1490h180v551h14c37-59 106-193 324-193 279 0 474 222 474 576 0 356-194 580-473 580zm-27-161c209 0 317-186 317-421 0-232-105-413-317-413-206 0-314 166-314 413 0 249 111 421 314 421" id="aJ"/><g id="z"><use transform="matrix(0.010850694444444444,0,0,0.010850694444444444,0,0)" xlink:href="#aI"/><use transform="matrix(0.010850694444444444,0,0,0.010850694444444444,14.2578125,0)" xlink:href="#aw"/><use transform="matrix(0.010850694444444444,0,0,0.010850694444444444,27.39800347222222,0)" xlink:href="#aJ"/><use transform="matrix(0.010850694444444444,0,0,0.010850694444444444,41.00477430555556,0)" xlink:href="#V"/><use transform="matrix(0.010850694444444444,0,0,0.010850694444444444,52.734375,0)" xlink:href="#X"/><use transform="matrix(0.010850694444444444,0,0,0.010850694444444444,65.4296875,0)" xlink:href="#at"/><use transform="matrix(0.010850694444444444,0,0,0.010850694444444444,74.1427951388889,0)" xlink:href="#T"/><use transform="matrix(0.010850694444444444,0,0,0.010850694444444444,79.52473958333334,0)" xlink:href="#aE"/><use transform="matrix(0.010850694444444444,0,0,0.010850694444444444,93.13151041666666,0)" xlink:href="#ai"/><use transform="matrix(0.010850694444444444,0,0,0.010850694444444444,100.40147569444444,0)" xlink:href="#T"/><use transform="matrix(0.010850694444444444,0,0,0.010850694444444444,105.78342013888889,0)" xlink:href="#R"/><use transform="matrix(0.010850694444444444,0,0,0.010850694444444444,119.10807291666666,0)" xlink:href="#aa"/><use transform="matrix(0.010850694444444444,0,0,0.010850694444444444,132.23741319444443,0)" xlink:href="#aI"/><use transform="matrix(0.010850694444444444,0,0,0.010850694444444444,146.49522569444443,0)" xlink:href="#ai"/><use transform="matrix(0.010850694444444444,0,0,0.010850694444444444,153.87369791666666,0)" xlink:href="#Z"/><use transform="matrix(0.010850694444444444,0,0,0.010850694444444444,166.35199652777777,0)" xlink:href="#ai"/><use transform="matrix(0.010850694444444444,0,0,0.010850694444444444,173.62196180555554,0)" xlink:href="#aw"/><use transform="matrix(0.010850694444444444,0,0,0.010850694444444444,186.76215277777777,0)" xlink:href="#V"/></g><path d="M458 0L52-1490h194c108 439 233 855 324 1313 92-459 221-873 331-1313h216c110 438 234 854 330 1307 92-455 216-869 323-1307h196L1558 0h-221l-256-944c-26-95-50-200-73-331-22 122-44 223-73 331L680 0H458" id="aK"/><path d="M338-670V0H158v-1490h180v566c73-149 190-208 336-208 226 0 379 139 379 422V0H872v-695c0-172-96-275-252-275-161 0-282 109-282 300" id="aL"/><g id="A"><use transform="matrix(0.010850694444444444,0,0,0.010850694444444444,0,0)" xlink:href="#ah"/><use transform="matrix(0.010850694444444444,0,0,0.010850694444444444,12.608506944444445,0)" xlink:href="#R"/><use transform="matrix(0.010850694444444444,0,0,0.010850694444444444,25.93315972222222,0)" xlink:href="#ai"/><use transform="matrix(0.010850694444444444,0,0,0.010850694444444444,33.31163194444444,0)" xlink:href="#Z"/><use transform="matrix(0.010850694444444444,0,0,0.010850694444444444,45.78993055555556,0)" xlink:href="#Y"/><use transform="matrix(0.010850694444444444,0,0,0.010850694444444444,51.171875,0)" xlink:href="#aK"/><use transform="matrix(0.010850694444444444,0,0,0.010850694444444444,71.94010416666667,0)" xlink:href="#Z"/><use transform="matrix(0.010850694444444444,0,0,0.010850694444444444,84.41840277777779,0)" xlink:href="#ai"/><use transform="matrix(0.010850694444444444,0,0,0.010850694444444444,91.47135416666666,0)" xlink:href="#X"/><use transform="matrix(0.010850694444444444,0,0,0.010850694444444444,104.16666666666666,0)" xlink:href="#aL"/><use transform="matrix(0.010850694444444444,0,0,0.010850694444444444,117.30685763888889,0)" xlink:href="#ai"/><use transform="matrix(0.010850694444444444,0,0,0.010850694444444444,124.57682291666666,0)" xlink:href="#T"/><use transform="matrix(0.010850694444444444,0,0,0.010850694444444444,129.95876736111111,0)" xlink:href="#Q"/><use transform="matrix(0.010850694444444444,0,0,0.010850694444444444,149.42491319444446,0)" xlink:href="#U"/></g><g id="B"><use transform="matrix(0.010850694444444444,0,0,0.010850694444444444,0,0)" xlink:href="#ad"/><use transform="matrix(0.010850694444444444,0,0,0.010850694444444444,16.03732638888889,0)" xlink:href="#U"/><use transform="matrix(0.010850694444444444,0,0,0.010850694444444444,28.559027777777775,0)" xlink:href="#S"/><use transform="matrix(0.010850694444444444,0,0,0.010850694444444444,41.048177083333336,0)" xlink:href="#T"/><use transform="matrix(0.010850694444444444,0,0,0.010850694444444444,46.43012152777778,0)" xlink:href="#X"/><use transform="matrix(0.010850694444444444,0,0,0.010850694444444444,59.12543402777778,0)" xlink:href="#U"/></g><g id="C"><use transform="matrix(0.010850694444444444,0,0,0.010850694444444444,0,0)" xlink:href="#Q"/><use transform="matrix(0.010850694444444444,0,0,0.010850694444444444,19.466145833333332,0)" xlink:href="#R"/><use transform="matrix(0.010850694444444444,0,0,0.010850694444444444,32.35677083333333,0)" xlink:href="#S"/><use transform="matrix(0.010850694444444444,0,0,0.010850694444444444,44.845920138888886,0)" xlink:href="#T"/><use transform="matrix(0.010850694444444444,0,0,0.010850694444444444,50.22786458333333,0)" xlink:href="#U"/><use transform="matrix(0.010850694444444444,0,0,0.010850694444444444,63.18359375,0)" xlink:href="#W"/><use transform="matrix(0.010850694444444444,0,0,0.010850694444444444,73.3181423611111,0)" xlink:href="#av"/><use transform="matrix(0.010850694444444444,0,0,0.010850694444444444,86.94661458333331,0)" xlink:href="#U"/><use transform="matrix(0.010850694444444444,0,0,0.010850694444444444,99.90234374999997,0)" xlink:href="#aa"/><use transform="matrix(0.010850694444444444,0,0,0.010850694444444444,113.03168402777776,0)" xlink:href="#at"/><use transform="matrix(0.010850694444444444,0,0,0.010850694444444444,121.02864583333331,0)" xlink:href="#U"/><use transform="matrix(0.010850694444444444,0,0,0.010850694444444444,133.98437499999997,0)" xlink:href="#V"/></g><path d="M128 359l88-567h206L266 359H128" id="aM"/><g id="D"><use transform="matrix(0.010850694444444444,0,0,0.010850694444444444,0,0)" xlink:href="#ae"/><use transform="matrix(0.010850694444444444,0,0,0.010850694444444444,14.192708333333332,0)" xlink:href="#af"/><use transform="matrix(0.010850694444444444,0,0,0.010850694444444444,29.12326388888889,0)" xlink:href="#aM"/></g><g id="E"><use transform="matrix(0.010850694444444444,0,0,0.010850694444444444,0,0)" xlink:href="#aC"/><use transform="matrix(0.010850694444444444,0,0,0.010850694444444444,13.118489583333332,0)" xlink:href="#af"/><use transform="matrix(0.010850694444444444,0,0,0.010850694444444444,28.04904513888889,0)" xlink:href="#ax"/></g><g id="F"><use transform="matrix(0.010850694444444444,0,0,0.010850694444444444,0,0)" xlink:href="#aG"/><use transform="matrix(0.010850694444444444,0,0,0.010850694444444444,16.57986111111111,0)" xlink:href="#U"/><use transform="matrix(0.010850694444444444,0,0,0.010850694444444444,29.535590277777775,0)" xlink:href="#aa"/><use transform="matrix(0.010850694444444444,0,0,0.010850694444444444,42.66493055555556,0)" xlink:href="#at"/><use transform="matrix(0.010850694444444444,0,0,0.010850694444444444,50.66189236111111,0)" xlink:href="#U"/><use transform="matrix(0.010850694444444444,0,0,0.010850694444444444,63.61762152777778,0)" xlink:href="#ac"/><use transform="matrix(0.010850694444444444,0,0,0.010850694444444444,69.58550347222221,0)" xlink:href="#ad"/></g><g id="G"><use transform="matrix(0.010850694444444444,0,0,0.010850694444444444,0,0)" xlink:href="#aC"/><use transform="matrix(0.010850694444444444,0,0,0.010850694444444444,13.118489583333332,0)" xlink:href="#af"/><use transform="matrix(0.010850694444444444,0,0,0.010850694444444444,28.04904513888889,0)" xlink:href="#ap"/></g><g id="H"><use transform="matrix(0.010850694444444444,0,0,0.010850694444444444,0,0)" xlink:href="#av"/><use transform="matrix(0.010850694444444444,0,0,0.010850694444444444,13.628472222222221,0)" xlink:href="#U"/><use transform="matrix(0.010850694444444444,0,0,0.010850694444444444,26.58420138888889,0)" xlink:href="#aa"/><use transform="matrix(0.010850694444444444,0,0,0.010850694444444444,39.713541666666664,0)" xlink:href="#at"/><use transform="matrix(0.010850694444444444,0,0,0.010850694444444444,47.71050347222221,0)" xlink:href="#U"/><use transform="matrix(0.010850694444444444,0,0,0.010850694444444444,60.66623263888888,0)" xlink:href="#V"/></g><g id="I"><use transform="matrix(0.010850694444444444,0,0,0.010850694444444444,0,0)" xlink:href="#aG"/><use transform="matrix(0.010850694444444444,0,0,0.010850694444444444,16.57986111111111,0)" xlink:href="#U"/><use transform="matrix(0.010850694444444444,0,0,0.010850694444444444,29.535590277777775,0)" xlink:href="#aa"/><use transform="matrix(0.010850694444444444,0,0,0.010850694444444444,42.66493055555556,0)" xlink:href="#at"/><use transform="matrix(0.010850694444444444,0,0,0.010850694444444444,50.66189236111111,0)" xlink:href="#U"/><use transform="matrix(0.010850694444444444,0,0,0.010850694444444444,63.61762152777778,0)" xlink:href="#W"/><use transform="matrix(0.010850694444444444,0,0,0.010850694444444444,74.50086805555556,0)" xlink:href="#ag"/><use transform="matrix(0.010850694444444444,0,0,0.010850694444444444,91.24348958333334,0)" xlink:href="#Z"/><use transform="matrix(0.010850694444444444,0,0,0.010850694444444444,103.72178819444446,0)" xlink:href="#Q"/><use transform="matrix(0.010850694444444444,0,0,0.010850694444444444,123.1879340277778,0)" xlink:href="#U"/></g><path d="M135 0v-1490h997v253H440v360h640v249H440v375h694V0H135" id="aN"/><path d="M428-647V0H128v-1118h283l4 231c63-156 176-245 348-245 232 0 384 159 384 421V0H847v-659c0-139-76-222-202-222-128 0-217 86-217 234" id="aO"/><path d="M683-1118v229H474v562c0 71 29 104 102 104 23 0 73-7 95-13l43 225C647 9 580 16 520 16 296 16 174-96 174-301v-588H20v-229h154v-266h300v266h209" id="aP"/><path d="M128 0v-1118h300V0H128zm150-1264c-91 0-165-68-165-154 0-85 74-154 165-154 90 0 165 69 165 154 0 86-75 154-165 154" id="aQ"/><path d="M120 396l69-226c123 42 245 23 254-107l8-60L31-1118h319c87 288 199 559 259 872 72-308 185-583 277-872h315L726 132c-68 181-186 294-410 294-79 0-153-13-196-30" id="aR"/><g id="J"><use transform="matrix(0.01953125,0,0,0.01953125,0,0)" xlink:href="#aN"/><use transform="matrix(0.01953125,0,0,0.01953125,24.296875,0)" xlink:href="#aO"/><use transform="matrix(0.01953125,0,0,0.01953125,49.19921875,0)" xlink:href="#aP"/><use transform="matrix(0.01953125,0,0,0.01953125,63.84765625,0)" xlink:href="#aQ"/><use transform="matrix(0.01953125,0,0,0.01953125,74.6875,0)" xlink:href="#aP"/><use transform="matrix(0.01953125,0,0,0.01953125,90.21484375,0)" xlink:href="#aR"/></g><path d="M135 0v-1490h581c339 0 533 192 533 485 0 204-94 351-264 424L1302 0H964L680-532H440V0H135zm305-779h220c186 0 274-77 274-226 0-150-88-233-275-233H440v459" id="aS"/><path d="M633 22C291 22 81-200 81-553c0-345 210-579 537-579 292 0 525 185 525 567v84H378c7 183 109 277 260 277 105 0 184-46 216-132l272 51C1071-99 893 22 633 22zM380-669h474c-15-146-94-237-233-237-143 0-229 99-241 237" id="aT"/><path d="M428-1490V0H128v-1490h300" id="aU"/><path d="M440 22C227 22 68-92 68-313c0-250 202-322 422-343 195-21 271-24 271-105 0-95-63-149-175-149-116 0-187 57-211 129l-275-46c57-194 237-305 487-305 240 0 474 108 474 379V0H777v-155h-10C713-51 605 22 440 22zm85-211c140 0 238-93 238-211v-121c-37 26-156 42-222 51-111 16-185 59-185 149 0 87 70 132 169 132" id="aV"/><path d="M628 22C291 22 81-210 81-554c0-346 210-578 547-578 336 0 547 232 547 578 0 344-211 576-547 576zm0-236c160 0 242-146 242-341 0-197-82-341-242-341S387-753 387-555c0 195 81 341 241 341" id="aW"/><path d="M572 22C302 22 117-98 78-306l279-48c29 105 101 156 224 156 114 0 185-48 185-115 0-118-228-130-337-155-215-49-322-150-322-317 0-215 187-347 470-347 265 0 424 116 466 298l-266 47c-24-76-87-130-196-130-98 0-174 46-174 113 0 56 38 95 144 117l201 40c216 44 320 143 320 302 0 220-207 367-500 367" id="aX"/><path d="M428-647V0H128v-1490h294v586c65-146 175-228 341-228 232 0 385 159 385 421V0H847v-659c0-139-76-222-202-222-128 0-217 86-217 234" id="aY"/><path d="M128 418v-1536h295v188h14c41-89 129-202 319-202 248 0 453 193 453 575 0 372-197 576-455 576-183 0-275-108-317-198h-9v597H128zm534-640c156 0 240-139 240-336 0-196-83-334-240-334-154 0-241 131-241 334 0 202 88 336 241 336" id="aZ"/><g id="K"><use transform="matrix(0.01953125,0,0,0.01953125,0,0)" xlink:href="#aS"/><use transform="matrix(0.01953125,0,0,0.01953125,25.78125,0)" xlink:href="#aT"/><use transform="matrix(0.01953125,0,0,0.01953125,49.609375,0)" xlink:href="#aU"/><use transform="matrix(0.01953125,0,0,0.01953125,60.44921875,0)" xlink:href="#aV"/><use transform="matrix(0.01953125,0,0,0.01953125,83.671875,0)" xlink:href="#aP"/><use transform="matrix(0.01953125,0,0,0.01953125,98.3203125,0)" xlink:href="#aQ"/><use transform="matrix(0.01953125,0,0,0.01953125,109.16015625,0)" xlink:href="#aW"/><use transform="matrix(0.01953125,0,0,0.01953125,133.69140625,0)" xlink:href="#aO"/><use transform="matrix(0.01953125,0,0,0.01953125,158.59375,0)" xlink:href="#aX"/><use transform="matrix(0.01953125,0,0,0.01953125,180.99609375,0)" xlink:href="#aY"/><use transform="matrix(0.01953125,0,0,0.01953125,205.8984375,0)" xlink:href="#aQ"/><use transform="matrix(0.01953125,0,0,0.01953125,216.73828125,0)" xlink:href="#aZ"/></g><path d="M659 0H135v-1490h529c448 0 721 280 721 744 0 466-273 746-726 746zM440-263h204c287 0 437-148 437-483 0-333-150-481-435-481H440v964" id="ba"/><path d="M625 442c-280 0-454-114-503-274l258-72c28 63 97 128 243 128 153 0 246-69 246-216v-206h-23C805-108 717-16 536-16 284-16 81-191 81-561c0-378 208-571 456-571 188 0 280 113 321 202h13v-188h295V-9c0 303-226 451-541 451zm5-686c153 0 240-119 240-319 0-198-86-329-240-329-158 0-241 137-241 329 0 195 85 319 241 319" id="bb"/><path d="M128 0v-1118h290v195h12c54-169 184-238 367-200v268c-27-8-86-15-130-15-138 0-239 95-239 234V0H128" id="bc"/><path d="M128 0v-1118h278l12 217c60-163 185-234 319-234 143 0 236 81 288 251 63-172 205-251 359-251 205 0 357 138 357 381V0h-301v-697c0-126-76-187-177-187-114 0-184 79-184 196V0H789v-705c0-109-72-179-174-179-106 0-187 74-187 208V0H128" id="bd"/><g id="L"><use transform="matrix(0.01953125,0,0,0.01953125,0,0)" xlink:href="#ba"/><use transform="matrix(0.01953125,0,0,0.01953125,28.88671875,0)" xlink:href="#aQ"/><use transform="matrix(0.01953125,0,0,0.01953125,39.7265625,0)" xlink:href="#aV"/><use transform="matrix(0.01953125,0,0,0.01953125,62.94921875,0)" xlink:href="#bb"/><use transform="matrix(0.01953125,0,0,0.01953125,88.22265625,0)" xlink:href="#bc"/><use transform="matrix(0.01953125,0,0,0.01953125,103.96484375,0)" xlink:href="#aV"/><use transform="matrix(0.01953125,0,0,0.01953125,127.1875,0)" xlink:href="#bd"/></g><path d="M750-1118v229H516V0H217v-889H20v-229h197v-86c0-238 156-356 363-356 94 0 178 20 215 31l-54 226c-25-7-61-15-100-15-123-3-131 84-125 200h234" id="be"/><g id="M"><use transform="matrix(0.01953125,0,0,0.01953125,0,0)" xlink:href="#aW"/><use transform="matrix(0.01953125,0,0,0.01953125,24.53125,0)" xlink:href="#be"/></g><path d="M135 0v-1490h305v1237h643V0H135" id="bf"/><g id="N"><use transform="matrix(0.01953125,0,0,0.01953125,0,0)" xlink:href="#ba"/><use transform="matrix(0.01953125,0,0,0.01953125,28.88671875,0)" xlink:href="#aV"/><use transform="matrix(0.01953125,0,0,0.01953125,52.109375,0)" xlink:href="#aP"/><use transform="matrix(0.01953125,0,0,0.01953125,66.953125,0)" xlink:href="#aV"/><use transform="matrix(0.01953125,0,0,0.01953125,90.17578125,0)" xlink:href="#bf"/><use transform="matrix(0.01953125,0,0,0.01953125,112.79296875,0)" xlink:href="#aT"/><use transform="matrix(0.01953125,0,0,0.01953125,136.62109375,0)" xlink:href="#aO"/><use transform="matrix(0.01953125,0,0,0.01953125,161.5234375,0)" xlink:href="#aX"/></g><path d="M681 22C323 22 94-145 85-462h297c10 151 131 226 296 226 163 0 271-77 271-190 0-102-95-149-257-189l-164-41c-252-61-403-188-403-405 0-269 236-449 560-449 330 0 546 183 551 445H941c-11-119-106-188-259-188-156 0-244 72-244 172-3 156 226 185 373 221 250 61 445 186 445 436 0 271-213 446-575 446" id="bg"/><g id="O"><use transform="matrix(0.01953125,0,0,0.01953125,0,0)" xlink:href="#bg"/><use transform="matrix(0.01953125,0,0,0.01953125,26.19140625,0)" xlink:href="#aP"/><use transform="matrix(0.01953125,0,0,0.01953125,40.83984375,0)" xlink:href="#bc"/><use transform="matrix(0.01953125,0,0,0.01953125,56.15234375,0)" xlink:href="#aT"/><use transform="matrix(0.01953125,0,0,0.01953125,80.37109375,0)" xlink:href="#aV"/><use transform="matrix(0.01953125,0,0,0.01953125,103.59375,0)" xlink:href="#bd"/><use transform="matrix(0.01953125,0,0,0.01953125,140.09765625,0)" xlink:href="#aQ"/><use transform="matrix(0.01953125,0,0,0.01953125,150.9375,0)" xlink:href="#aO"/><use transform="matrix(0.01953125,0,0,0.01953125,175.83984375,0)" xlink:href="#bb"/></g><path d="M754 19C571 19 479-89 437-179h-14V0H128v-1490h300v560h9c41-89 129-202 319-202 248 0 453 193 453 575 0 372-197 576-455 576zm-92-241c156 0 240-139 240-336 0-196-83-334-240-334-154 0-241 131-241 334 0 202 88 336 241 336" id="bh"/><g id="P"><use transform="matrix(0.01953125,0,0,0.01953125,0,0)" xlink:href="#ba"/><use transform="matrix(0.01953125,0,0,0.01953125,28.88671875,0)" xlink:href="#aV"/><use transform="matrix(0.01953125,0,0,0.01953125,52.109375,0)" xlink:href="#aP"/><use transform="matrix(0.01953125,0,0,0.01953125,66.953125,0)" xlink:href="#aV"/><use transform="matrix(0.01953125,0,0,0.01953125,90.17578125,0)" xlink:href="#bh"/><use transform="matrix(0.01953125,0,0,0.01953125,115.78125,0)" xlink:href="#aV"/><use transform="matrix(0.01953125,0,0,0.01953125,139.00390625,0)" xlink:href="#aX"/><use transform="matrix(0.01953125,0,0,0.01953125,161.40625,0)" xlink:href="#aT"/></g></defs></g></svg>